<svg t="1677071652411" class="icon" viewBox="0 0 1024 1024" version="1.1" xmlns="http://www.w3.org/2000/svg" p-id="5600"
    width="24" height="24">
    <path
        d="M604.97 871.8c-30.3 7.89-61.43 11.62-92.97 11.62-204.6 0-371.42-166.41-371.42-371.42 0-114.12 53.12-222.02 142.34-292.58l-0.41 105c0 12.04 9.54 21.99 21.58 21.99s21.99-9.55 21.99-21.58l0.42-123.67c0-22.82-18.25-41.51-41.08-41.51l-123.26-0.41c-12.04 0-22 9.54-22 21.58s9.55 22 21.59 22l72.62 0.41C147.64 281.26 97 393.73 97 512c0 228.66 186.33 415 415 415 35.28 0 70.14-4.57 103.75-12.86 11.62-2.91 18.67-14.95 15.77-26.57-3.32-12.03-14.94-18.67-26.55-15.77z m235.3-19.09l-78.02-9.54C865.99 765.16 927 643.97 927 512c0-228.67-186.34-415-415-415-51.88 0-102.09 9.55-149.82 27.8-11.2 4.57-17.01 17.02-12.45 28.23a22.106 22.106 0 0 0 28.22 12.46c42.75-16.61 87.98-24.91 134.05-24.91 204.59 0 371.42 166.41 371.42 371.42 0 123.67-59.75 236.55-160.6 305.86l12.03-100.02c1.24-12.03-7.05-22.82-19.09-24.48-12.04-1.66-22.82 7.05-24.48 19.09L676.75 835.3c-1.24 10.78 1.65 21.57 8.71 30.29 6.64 8.71 16.59 14.11 27.39 15.35l122.85 14.52h2.48c10.79 0 20.34-8.3 21.58-19.08 1.26-11.63-7.46-22.42-19.49-23.67z m0 0"
        fill="#383838" p-id="5601"></path>
</svg>